<?xml version="1.0" encoding="UTF-8"?>
<svg xmlns="http://www.w3.org/2000/svg" id="RSSicon" viewBox="0 0 8 8">
  <g fill-rule="evenodd" fill="#FFF4EF"> <!-- fill="#FFF4EF" -->
    <!-- <rect   width="8" height="8" rx="1.5" /> -->
    <path fill-rule="nonzero" fill="#FFF4EF"
        d="M2,0 h4 a2,2,0,0,1,2,2 v4 a2,2,0,0,1,-2,2 h-4 a2,2,0,0,1,-2,-2 v-4 a2,2,0,0,1,2,-2
           M2.5,6.25 a0.5,0.5,0,0,0,-1.5,0 a0.5,0.5,0,0,0,1.5,0
           M1,4 a3,3,0,0,1,3,3 h1 a4,4,0,0,0,-4,-4 z
           M1,2 a5,5,0,0,1,5,5 h1 a6,6,0,0,0,-6,-6 z"
         />
    <!-- <circle cx="2" cy="6" r="1" /> -->
    <!-- <path fill-rule="nonzero" stroke="red" stroke-width="1%" d="m 1,4 a 3,3 0 0 1 3,3 h 1 a 4,4 0 0 0 -4,-4 z" />
    <path fill-rule="nonzero" stroke="red" stroke-width="1%" d="m 1,2 a 5,5 0 0 1 5,5 h 1 a 6,6 0 0 0 -6,-6 z" /> -->
  </g>

</svg>